<mxfile host="Electron" agent="Mozilla/5.0 (Windows NT 10.0; Win64; x64) AppleWebKit/537.36 (KHTML, like Gecko) draw.io/24.7.5 Chrome/126.0.6478.183 Electron/31.3.0 Safari/537.36" version="24.7.5">
  <diagram name="Seite-1" id="vsLzy8c6fAX1nwYtDnwI">
    <mxGraphModel dx="1036" dy="606" grid="1" gridSize="10" guides="1" tooltips="1" connect="1" arrows="1" fold="1" page="1" pageScale="1" pageWidth="827" pageHeight="1169" math="0" shadow="0">
      <root>
        <mxCell id="0" />
        <mxCell id="1" parent="0" />
        <mxCell id="2VOrqjGS2DREaBcIpoSg-7" value="" style="ellipse;whiteSpace=wrap;html=1;aspect=fixed;fillColor=none;strokeColor=#1BA1E2;dashed=1;movable=1;resizable=1;rotatable=1;deletable=1;editable=1;locked=0;connectable=1;strokeWidth=4;" parent="1" vertex="1">
          <mxGeometry x="105" y="140" width="670" height="670" as="geometry" />
        </mxCell>
        <mxCell id="2VOrqjGS2DREaBcIpoSg-1" value="Audioverarbeitung" style="ellipse;whiteSpace=wrap;html=1;aspect=fixed;" parent="1" vertex="1">
          <mxGeometry x="360" y="210" width="160" height="160" as="geometry" />
        </mxCell>
        <mxCell id="2VOrqjGS2DREaBcIpoSg-5" value="Klassifizierung" style="ellipse;whiteSpace=wrap;html=1;aspect=fixed;" parent="1" vertex="1">
          <mxGeometry x="160" y="400" width="160" height="160" as="geometry" />
        </mxCell>
        <mxCell id="2VOrqjGS2DREaBcIpoSg-6" value="Interface" style="ellipse;whiteSpace=wrap;html=1;aspect=fixed;" parent="1" vertex="1">
          <mxGeometry x="359" y="600" width="160" height="160" as="geometry" />
        </mxCell>
        <mxCell id="2VOrqjGS2DREaBcIpoSg-8" value="" style="endArrow=classic;html=1;rounded=0;entryX=0.715;entryY=0.946;entryDx=0;entryDy=0;entryPerimeter=0;exitX=0.065;exitY=0.253;exitDx=0;exitDy=0;exitPerimeter=0;" parent="1" source="2VOrqjGS2DREaBcIpoSg-24" target="2VOrqjGS2DREaBcIpoSg-1" edge="1">
          <mxGeometry width="50" height="50" relative="1" as="geometry">
            <mxPoint x="350" y="400" as="sourcePoint" />
            <mxPoint x="400" y="350" as="targetPoint" />
          </mxGeometry>
        </mxCell>
        <mxCell id="2VOrqjGS2DREaBcIpoSg-9" value="downsamplingData[1024*3]&lt;br&gt;(InputChunk)" style="edgeLabel;html=1;align=center;verticalAlign=middle;resizable=0;points=[];" parent="2VOrqjGS2DREaBcIpoSg-8" vertex="1" connectable="0">
          <mxGeometry x="0.1342" y="2" relative="1" as="geometry">
            <mxPoint x="-2" y="4" as="offset" />
          </mxGeometry>
        </mxCell>
        <mxCell id="2VOrqjGS2DREaBcIpoSg-10" value="" style="endArrow=classic;html=1;rounded=0;entryX=0.742;entryY=0.06;entryDx=0;entryDy=0;entryPerimeter=0;exitX=0.061;exitY=0.74;exitDx=0;exitDy=0;exitPerimeter=0;" parent="1" source="2VOrqjGS2DREaBcIpoSg-1" target="2VOrqjGS2DREaBcIpoSg-5" edge="1">
          <mxGeometry width="50" height="50" relative="1" as="geometry">
            <mxPoint x="270" y="400" as="sourcePoint" />
            <mxPoint x="432" y="302" as="targetPoint" />
          </mxGeometry>
        </mxCell>
        <mxCell id="2VOrqjGS2DREaBcIpoSg-11" value="downsampedData[1024]&lt;br&gt;(Frame/OutputChunk)" style="edgeLabel;html=1;align=center;verticalAlign=middle;resizable=0;points=[];" parent="2VOrqjGS2DREaBcIpoSg-10" vertex="1" connectable="0">
          <mxGeometry x="0.1342" y="2" relative="1" as="geometry">
            <mxPoint x="-19" y="-14" as="offset" />
          </mxGeometry>
        </mxCell>
        <mxCell id="2VOrqjGS2DREaBcIpoSg-15" value="" style="endArrow=classic;html=1;rounded=0;entryX=0.971;entryY=0.699;entryDx=0;entryDy=0;entryPerimeter=0;exitX=0.353;exitY=0.021;exitDx=0;exitDy=0;exitPerimeter=0;" parent="1" source="2VOrqjGS2DREaBcIpoSg-24" target="2VOrqjGS2DREaBcIpoSg-1" edge="1">
          <mxGeometry width="50" height="50" relative="1" as="geometry">
            <mxPoint x="366.5" y="577" as="sourcePoint" />
            <mxPoint x="597.28" y="594.72" as="targetPoint" />
          </mxGeometry>
        </mxCell>
        <mxCell id="2VOrqjGS2DREaBcIpoSg-16" value="current_cursor_filename" style="edgeLabel;html=1;align=center;verticalAlign=middle;resizable=0;points=[];" parent="2VOrqjGS2DREaBcIpoSg-15" vertex="1" connectable="0">
          <mxGeometry x="0.1342" y="2" relative="1" as="geometry">
            <mxPoint x="3" y="-7" as="offset" />
          </mxGeometry>
        </mxCell>
        <mxCell id="2VOrqjGS2DREaBcIpoSg-23" value="" style="endArrow=classic;html=1;rounded=0;exitX=0.997;exitY=0.474;exitDx=0;exitDy=0;exitPerimeter=0;entryX=-0.002;entryY=0.469;entryDx=0;entryDy=0;entryPerimeter=0;" parent="1" source="2VOrqjGS2DREaBcIpoSg-5" target="2VOrqjGS2DREaBcIpoSg-24" edge="1">
          <mxGeometry width="50" height="50" relative="1" as="geometry">
            <mxPoint x="364" y="600" as="sourcePoint" />
            <mxPoint x="414" y="550" as="targetPoint" />
          </mxGeometry>
        </mxCell>
        <mxCell id="2VOrqjGS2DREaBcIpoSg-25" value="classification_result[5]" style="edgeLabel;html=1;align=center;verticalAlign=middle;resizable=0;points=[];" parent="2VOrqjGS2DREaBcIpoSg-23" vertex="1" connectable="0">
          <mxGeometry x="0.3202" y="1" relative="1" as="geometry">
            <mxPoint x="-44" y="-11" as="offset" />
          </mxGeometry>
        </mxCell>
        <mxCell id="2VOrqjGS2DREaBcIpoSg-24" value="Dateisystem&lt;br&gt;(Filemanager struct)" style="ellipse;whiteSpace=wrap;html=1;aspect=fixed;" parent="1" vertex="1">
          <mxGeometry x="560" y="400" width="160" height="160" as="geometry" />
        </mxCell>
        <mxCell id="2VOrqjGS2DREaBcIpoSg-29" value="" style="endArrow=classic;html=1;rounded=0;exitX=0.698;exitY=0.043;exitDx=0;exitDy=0;exitPerimeter=0;entryX=0.067;entryY=0.757;entryDx=0;entryDy=0;entryPerimeter=0;" parent="1" source="2VOrqjGS2DREaBcIpoSg-6" target="2VOrqjGS2DREaBcIpoSg-24" edge="1">
          <mxGeometry width="50" height="50" relative="1" as="geometry">
            <mxPoint x="591" y="548" as="sourcePoint" />
            <mxPoint x="346" y="548" as="targetPoint" />
          </mxGeometry>
        </mxCell>
        <mxCell id="2VOrqjGS2DREaBcIpoSg-30" value="current_cursor_filename" style="edgeLabel;html=1;align=center;verticalAlign=middle;resizable=0;points=[];" parent="2VOrqjGS2DREaBcIpoSg-29" vertex="1" connectable="0">
          <mxGeometry x="0.3202" y="1" relative="1" as="geometry">
            <mxPoint x="-22" y="11" as="offset" />
          </mxGeometry>
        </mxCell>
        <mxCell id="2VOrqjGS2DREaBcIpoSg-35" value="" style="endArrow=classic;html=1;rounded=0;exitX=0.923;exitY=0.232;exitDx=0;exitDy=0;exitPerimeter=0;entryX=0.22;entryY=0.918;entryDx=0;entryDy=0;entryPerimeter=0;" parent="1" source="2VOrqjGS2DREaBcIpoSg-5" target="2VOrqjGS2DREaBcIpoSg-1" edge="1">
          <mxGeometry width="50" height="50" relative="1" as="geometry">
            <mxPoint x="353" y="514" as="sourcePoint" />
            <mxPoint x="567" y="516" as="targetPoint" />
          </mxGeometry>
        </mxCell>
        <mxCell id="2VOrqjGS2DREaBcIpoSg-36" value="FIL unclassified_file" style="edgeLabel;html=1;align=center;verticalAlign=middle;resizable=0;points=[];" parent="2VOrqjGS2DREaBcIpoSg-35" vertex="1" connectable="0">
          <mxGeometry x="0.3202" y="1" relative="1" as="geometry">
            <mxPoint x="-12" y="16" as="offset" />
          </mxGeometry>
        </mxCell>
        <mxCell id="2VOrqjGS2DREaBcIpoSg-37" value="" style="endArrow=classic;html=1;rounded=0;exitX=0.014;exitY=0.621;exitDx=0;exitDy=0;exitPerimeter=0;entryX=0.987;entryY=0.626;entryDx=0;entryDy=0;entryPerimeter=0;" parent="1" source="2VOrqjGS2DREaBcIpoSg-24" target="2VOrqjGS2DREaBcIpoSg-5" edge="1">
          <mxGeometry width="50" height="50" relative="1" as="geometry">
            <mxPoint x="560" y="500" as="sourcePoint" />
            <mxPoint x="320" y="500" as="targetPoint" />
          </mxGeometry>
        </mxCell>
        <mxCell id="2VOrqjGS2DREaBcIpoSg-38" value="FIL unclassified_file" style="edgeLabel;html=1;align=center;verticalAlign=middle;resizable=0;points=[];" parent="2VOrqjGS2DREaBcIpoSg-37" vertex="1" connectable="0">
          <mxGeometry x="0.3202" y="1" relative="1" as="geometry">
            <mxPoint x="25" y="9" as="offset" />
          </mxGeometry>
        </mxCell>
        <mxCell id="2VOrqjGS2DREaBcIpoSg-39" value="&lt;font style=&quot;font-size: 35px;&quot;&gt;I M A&lt;/font&gt;" style="text;html=1;strokeColor=none;fillColor=none;align=center;verticalAlign=middle;whiteSpace=wrap;rounded=0;fontColor=#1BA1E2;" parent="1" vertex="1">
          <mxGeometry x="359" y="160" width="176" height="30" as="geometry" />
        </mxCell>
        <mxCell id="GHxpxP-mXL12nc1_p8fe-1" value="" style="endArrow=classic;html=1;rounded=0;entryX=0.926;entryY=0.249;entryDx=0;entryDy=0;exitX=0.275;exitY=0.954;exitDx=0;exitDy=0;exitPerimeter=0;entryPerimeter=0;" edge="1" parent="1" source="2VOrqjGS2DREaBcIpoSg-24" target="2VOrqjGS2DREaBcIpoSg-6">
          <mxGeometry width="50" height="50" relative="1" as="geometry">
            <mxPoint x="520" y="653" as="sourcePoint" />
            <mxPoint x="613" y="562" as="targetPoint" />
          </mxGeometry>
        </mxCell>
        <mxCell id="GHxpxP-mXL12nc1_p8fe-2" value="files[MAX_FILES]" style="edgeLabel;html=1;align=center;verticalAlign=middle;resizable=0;points=[];" vertex="1" connectable="0" parent="GHxpxP-mXL12nc1_p8fe-1">
          <mxGeometry x="0.3202" y="1" relative="1" as="geometry">
            <mxPoint x="39" as="offset" />
          </mxGeometry>
        </mxCell>
      </root>
    </mxGraphModel>
  </diagram>
</mxfile>
